<svg id="visual" viewBox="0 0 900 600" width="900" height="600" xmlns="http://www.w3.org/2000/svg" xmlns:xlink="http://www.w3.org/1999/xlink" version="1.1"><rect x="0" y="0" width="900" height="600" fill="#efe4e4"></rect><defs><linearGradient id="grad1_0" x1="33.3%" y1="0%" x2="100%" y2="100%"><stop offset="20%" stop-color="#efe4e4" stop-opacity="1"></stop><stop offset="80%" stop-color="#efe4e4" stop-opacity="1"></stop></linearGradient></defs><defs><linearGradient id="grad2_0" x1="0%" y1="0%" x2="66.7%" y2="100%"><stop offset="20%" stop-color="#efe4e4" stop-opacity="1"></stop><stop offset="80%" stop-color="#efe4e4" stop-opacity="1"></stop></linearGradient></defs><g transform="translate(900, 0)"><path d="M0 405.6C-79.9 400.2 -159.8 394.7 -202.8 351.3C-245.9 307.8 -252.1 226.4 -279.7 161.5C-307.4 96.6 -356.5 48.3 -405.6 0L0 0Z" fill="#3B82F6"></path></g><g transform="translate(0, 600)"><path d="M0 -405.6C78.8 -399.6 157.7 -393.5 202.8 -351.3C247.9 -309 259.3 -230.6 287.5 -166C315.7 -101.4 360.7 -50.7 405.6 0L0 0Z" fill="#3B82F6"></path></g></svg>