<svg id="visual" viewBox="0 0 900 600" width="900" height="600" xmlns="http://www.w3.org/2000/svg" xmlns:xlink="http://www.w3.org/1999/xlink" version="1.1"><rect x="0" y="0" width="900" height="600" fill="#acc3e5"></rect><defs><linearGradient id="grad1_0" x1="33.3%" y1="0%" x2="100%" y2="100%"><stop offset="20%" stop-color="#acc3e5" stop-opacity="1"></stop><stop offset="80%" stop-color="#acc3e5" stop-opacity="1"></stop></linearGradient></defs><defs><linearGradient id="grad2_0" x1="0%" y1="0%" x2="66.7%" y2="100%"><stop offset="20%" stop-color="#acc3e5" stop-opacity="1"></stop><stop offset="80%" stop-color="#acc3e5" stop-opacity="1"></stop></linearGradient></defs><g transform="translate(900, 0)"><path d="M0 540.8C-62.4 539.7 -124.8 538.5 -163.5 503.1C-202.2 467.7 -217.2 398.1 -268 368.9C-318.9 339.7 -405.6 350.8 -437.5 317.9C-469.5 285 -446.5 208 -454.6 147.7C-462.7 87.4 -501.8 43.7 -540.8 0L0 0Z" fill="#3B82F6"></path></g><g transform="translate(0, 600)"><path d="M0 -540.8C60.8 -541.5 121.6 -542.2 167.1 -514.4C212.6 -486.6 242.7 -430.3 283.9 -390.8C325.1 -351.2 377.3 -328.3 394.8 -286.8C412.3 -245.4 395.2 -185.3 413.7 -134.4C432.3 -83.5 486.5 -41.8 540.8 0L0 0Z" fill="#3B82F6"></path></g></svg>