<svg id="visual" viewBox="0 0 900 600" width="900" height="600" xmlns="http://www.w3.org/2000/svg" xmlns:xlink="http://www.w3.org/1999/xlink" version="1.1"><rect x="0" y="0" width="900" height="600" fill="#414e62"></rect><defs><linearGradient id="grad1_0" x1="33.3%" y1="0%" x2="100%" y2="100%"><stop offset="20%" stop-color="#414e62" stop-opacity="1"></stop><stop offset="80%" stop-color="#414e62" stop-opacity="1"></stop></linearGradient></defs><defs><linearGradient id="grad2_0" x1="0%" y1="0%" x2="66.7%" y2="100%"><stop offset="20%" stop-color="#414e62" stop-opacity="1"></stop><stop offset="80%" stop-color="#414e62" stop-opacity="1"></stop></linearGradient></defs><g transform="translate(900, 0)"><path d="M0 432.7C-21.5 412.6 -43 392.6 -69.3 392.9C-95.6 393.3 -126.6 414 -148 406.6C-169.4 399.1 -181.1 363.4 -197.5 342.1C-213.9 320.7 -235.1 313.7 -251.3 299.5C-267.6 285.4 -279 264.1 -294.9 247.5C-310.9 230.9 -331.3 218.9 -350.7 202.5C-370.2 186.1 -388.6 165.4 -388.1 141.3C-387.5 117.2 -368 89.7 -372.3 65.6C-376.5 41.5 -404.6 20.8 -432.7 0L0 0Z" fill="#0a306e"></path></g><g transform="translate(0, 600)"><path d="M0 -432.7C21.8 -407.7 43.5 -382.8 66 -374.2C88.5 -365.6 111.7 -373.4 137.2 -376.8C162.6 -380.2 190.3 -379.3 213.5 -369.8C236.7 -360.3 255.4 -342.2 270 -321.7C284.5 -301.3 294.9 -278.6 311 -261C327.2 -243.3 349.1 -230.8 369.8 -213.5C390.5 -196.2 410 -174.1 406.6 -148C403.1 -121.9 376.7 -91.8 377.2 -66.5C377.7 -41.2 405.2 -20.6 432.7 0L0 0Z" fill="#0a306e"></path></g></svg>