<svg id="visual" viewBox="0 0 900 600" width="900" height="600" xmlns="http://www.w3.org/2000/svg" xmlns:xlink="http://www.w3.org/1999/xlink" version="1.1"><rect x="0" y="0" width="900" height="600" fill="#ffffff"></rect><defs><linearGradient id="grad1_0" x1="33.3%" y1="0%" x2="100%" y2="100%"><stop offset="20%" stop-color="#ffffff" stop-opacity="1"></stop><stop offset="80%" stop-color="#ffffff" stop-opacity="1"></stop></linearGradient></defs><defs><linearGradient id="grad2_0" x1="0%" y1="0%" x2="66.7%" y2="100%"><stop offset="20%" stop-color="#ffffff" stop-opacity="1"></stop><stop offset="80%" stop-color="#ffffff" stop-opacity="1"></stop></linearGradient></defs><g transform="translate(900, 0)"><path d="M0 405.6C-83 402 -166 398.3 -202.8 351.3C-239.6 304.2 -230.2 213.8 -256.3 148C-282.4 82.2 -344 41.1 -405.6 0L0 0Z" fill="#fa523c"></path></g><g transform="translate(0, 600)"><path d="M0 -405.6C74.5 -397 148.9 -388.5 202.8 -351.3C256.7 -314.1 290.1 -248.3 320.4 -185C350.8 -121.7 378.2 -60.8 405.6 0L0 0Z" fill="#fa523c"></path></g></svg>