<svg id="visual" viewBox="0 0 900 600" width="900" height="600" xmlns="http://www.w3.org/2000/svg" xmlns:xlink="http://www.w3.org/1999/xlink" version="1.1"><rect x="0" y="0" width="900" height="600" fill="#ffffff"></rect><defs><linearGradient id="grad1_0" x1="33.3%" y1="0%" x2="100%" y2="100%"><stop offset="20%" stop-color="#ffffff" stop-opacity="1"></stop><stop offset="80%" stop-color="#ffffff" stop-opacity="1"></stop></linearGradient></defs><defs><linearGradient id="grad2_0" x1="0%" y1="0%" x2="66.7%" y2="100%"><stop offset="20%" stop-color="#ffffff" stop-opacity="1"></stop><stop offset="80%" stop-color="#ffffff" stop-opacity="1"></stop></linearGradient></defs><g transform="translate(900, 0)"><path d="M0 432.7C-21.2 394.9 -42.5 357.1 -71 357C-99.5 356.9 -135.3 394.3 -165.6 399.7C-195.8 405.1 -220.5 378.4 -228.9 342.6C-237.2 306.7 -229.2 261.8 -236.2 236.2C-243.1 210.6 -265 204.3 -289.4 193.3C-313.7 182.4 -340.5 166.7 -352 145.8C-363.5 124.9 -359.8 98.9 -370.7 73.7C-381.6 48.6 -407.2 24.3 -432.7 0L0 0Z" fill="#3B82F6"></path></g><g transform="translate(0, 600)"><path d="M0 -432.7C18.1 -384.4 36.2 -336.2 67.9 -341.3C99.6 -346.4 145 -404.9 165.6 -399.7C186.2 -394.6 182.1 -325.7 201.7 -301.8C221.3 -277.9 264.7 -298.9 294.2 -294.2C323.7 -289.4 339.3 -258.9 341.7 -228.3C344.2 -197.8 333.5 -167.1 348.3 -144.3C363.1 -121.5 403.4 -106.6 421.7 -83.9C440 -61.2 436.4 -30.6 432.7 0L0 0Z" fill="#3B82F6"></path></g></svg>